<svg xmlns="http://www.w3.org/2000/svg" version="1.1" xmlns:xlink="http://www.w3.org/1999/xlink" xmlns:svgjs="http://svgjs.com/svgjs" height="279.00318145751953" width="286.2140579223633"><defs id="SvgjsDefs4350"></defs><g id="SvgjsG4351" rel="mainfill" name="main_text" xmlns:name="main_text" transform="translate(52.12537240982056,-73.19021987915039)" fill="#ffffff"><path d="M4.22 191.66Q4.93 182.50 6.81 178.98Q7.04 178.40 7.39 177.93Q6.81 177.69 5.22 177.34Q3.64 176.99 2.93 176.64Q1.17 174.64 1.82 171.77Q2.46 168.89 4.22 168.19Q17.72 162.79 32.15 166.13Q46.58 169.48 56.21 180.51Q56.56 183.79 56.09 186.79Q55.62 189.78 54.74 192.13Q53.86 194.47 51.81 196.82Q49.75 199.17 48.11 200.75Q46.47 202.33 43.30 204.21Q40.13 206.09 38.31 207.14Q36.49 208.20 32.68 209.73Q28.87 211.25 27.22 211.90Q25.58 212.54 21.59 213.95Q17.60 215.36 16.54 215.71Q16.19 218.76 17.37 224.80Q18.54 230.85 17.84 233.90Q16.78 236.95 13.61 238.83Q10.44 240.70 6.81 239.77Q6.22 239.41 4.22 237.07Q1.88 218.76 4.22 191.66M17.13 188.96Q17.13 190.37 16.43 193.83Q15.72 197.29 15.90 199.34Q16.08 201.40 17.84 201.98Q24.64 204.33 32.91 198.99Q41.19 193.65 43.18 185.79Q38.25 182.03 34.85 179.92Q31.45 177.81 26.28 176.34Q21.12 174.88 16.54 176.05Q16.31 176.05 16.90 176.58Q17.48 177.11 18.31 178.10Q19.13 179.10 19.13 179.92Q19.13 181.56 18.13 184.50Q17.13 187.43 17.13 188.96ZM58.55 206.91Q58.32 198.11 64.07 192.71Q69.82 187.31 78.38 188.49Q85.42 189.43 90.65 195.29Q95.87 201.16 95.75 208.44Q94.69 211.72 86.07 216.83Q77.44 221.93 76.27 223.10Q75.68 223.22 74.80 224.04Q73.92 224.86 74.39 225.57Q75.80 228.15 77.91 229.20Q80.03 230.26 82.67 229.79Q85.31 229.32 87.48 228.50Q89.65 227.68 92.58 226.15Q95.63 228.50 94.52 232.43Q93.40 236.36 89.77 236.95Q89.53 236.95 87.18 237.36Q84.84 237.77 84.25 237.83Q83.66 237.89 81.67 238.06Q79.67 238.24 78.62 238.06Q77.56 237.89 76.04 237.59Q74.51 237.30 73.10 236.71Q59.02 230.38 58.55 206.91M71.34 212.89Q81.90 212.43 84.02 205.50Q85.89 201.40 80.96 199.22Q76.04 197.05 72.16 199.05Q69.82 200.34 69.05 203.68Q68.29 207.03 69.11 209.90Q69.93 212.78 71.34 212.89ZM115.58 187.55Q115.70 186.49 116.40 182.21Q117.11 177.93 117.34 175.58Q117.81 171.59 122.15 171.00Q126.49 170.42 129.78 172.76Q131.30 174.29 130.37 176.75Q125.79 186.73 125.79 200.69Q126.73 200.57 129.07 200.34Q139.52 198.93 141.75 200.81Q143.04 202.10 142.33 204.56Q141.98 205.74 141.16 206.62Q140.34 207.50 138.87 208.02Q137.41 208.55 136.29 208.90Q135.18 209.26 133.06 209.37Q130.95 209.49 129.95 209.55Q128.96 209.61 126.61 209.55Q124.26 209.49 123.79 209.49Q123.21 213.48 124.79 233.43Q126.38 253.38 126.14 256.54Q126.02 258.31 124.91 259.42Q123.79 260.53 122.03 260.53Q119.92 260.53 118.87 259.77Q117.81 259.01 117.11 256.78Q116.05 253.85 114.93 233.55Q113.82 213.25 111.94 209.84Q109.48 211.72 106.54 212.78Q103.61 213.83 100.74 213.25Q97.86 212.66 96.81 209.73Q96.34 208.55 97.33 207.03Q98.33 205.50 99.74 204.56Q101.26 203.74 106.49 202.63Q111.71 201.51 113.35 199.52Q114.41 198.23 114.76 196.29Q115.11 194.35 115.29 191.54Q115.46 188.72 115.58 187.55ZM147.61 203.62Q147.38 201.86 146.38 199.17Q145.38 196.47 144.74 194.53Q144.09 192.59 144.33 190.37Q144.56 188.14 146.44 186.49Q150.78 182.74 154.95 186.38Q159.11 190.01 158.17 195.88Q160.40 195.53 162.63 193.71Q164.86 191.89 166.27 190.13Q167.68 188.37 170.08 187.31Q172.49 186.26 175.31 187.08Q176.48 187.55 176.83 187.72Q177.18 187.90 178.18 188.37Q179.18 188.84 179.41 189.19Q179.65 189.54 180.06 190.13Q180.47 190.72 180.23 191.42Q180.00 192.13 179.41 192.95Q177.18 196.11 171.26 200.98Q165.33 205.85 162.87 209.49Q161.93 210.78 161.75 213.72Q161.58 216.65 161.11 217.71Q158.88 221.11 162.28 225.33Q164.04 227.56 163.69 231.20Q163.34 234.84 161.11 237.07Q159.35 239.65 156.12 239.77Q152.89 239.88 151.13 237.65Q149.14 236.36 149.37 232.37Q149.84 221.93 147.61 203.62Z" fill="#ffffff" style="fill: rgb(255, 255, 255);"></path></g><g id="SvgjsG4352" transform="translate(0.0009208321571350098,-0.0022567096166312695) scale(1.5)" rel="mainfill" name="outline_container" xmlns:name="outlineContainer_mainfill" fill="#ffffff"><g fill="#ffffff">  <path d="M27.288,149.342l1.741,2.293c-0.549-0.796-1.08-1.591-1.569-2.443c-0.653-1.072-1.152-1.517-1.803-2.21    C26.199,147.765,26.743,148.553,27.288,149.342z" fill="#ffffff" style="fill: rgb(255, 255, 255);"></path>  <path d="M33.054,156.528c0.227,0.21,0.446,0.413,0.642,0.595c-0.447-0.442-0.897-0.892-1.307-1.368    C32.616,156.018,32.828,156.296,33.054,156.528z" fill="#ffffff" style="fill: rgb(255, 255, 255);"></path>  <path d="M39.506,162.774c-1.265-1.231-2.487-2.399-3.679-3.515C36.814,160.31,38.011,161.489,39.506,162.774z" fill="#ffffff" style="fill: rgb(255, 255, 255);"></path>  <path d="M33.727,157.152c-0.009-0.009-0.018-0.017-0.03-0.029c0.705,0.706,1.403,1.406,2.131,2.136    c-0.709-0.814-1.32-1.565-1.821-2.229C34.35,157.546,34.479,157.841,33.727,157.152z" fill="#ffffff" style="fill: rgb(255, 255, 255);"></path>  <path d="M33.198,155.889c-0.086-0.132-0.181-0.267-0.254-0.395C32.993,155.587,33.087,155.727,33.198,155.889z" fill="#ffffff" style="fill: rgb(255, 255, 255);"></path>  <path d="M34.006,157.03c-0.229-0.339-0.566-0.793-0.808-1.141C33.434,156.25,33.699,156.622,34.006,157.03z" fill="#ffffff" style="fill: rgb(255, 255, 255);"></path>  <path d="M49.106,167.183c1.622,1.043,3.773,3.337,5.504,4.248c1.018,0.528,2.418,1.281,3.899,1.964    c1.504,0.638,3.014,1.346,4.261,1.767c2.479,0.871,3.635,1.164,0.544-0.244c-4.627-2.174-8.312-4.268-11.752-6.504    c-3.403-2.287-6.633-4.626-10.078-7.697c-2.83-2.456-5.548-4.961-8.043-7.72c-2.556-2.706-4.877-5.66-7.141-8.806    c-0.592-0.91-1.146-1.8-1.685-2.682c-0.275-0.436-0.522-0.884-0.762-1.335c4.321,0.993,7.919,0.74,12.146-1.542    c-4.889-8.717-16.67-12.209-25.518-7.563c2.653,4.858,6.067,7.005,11.339,8.568c0.688,0.204,1.355,0.381,2.007,0.532    c0.389,0.746,0.791,1.494,1.241,2.239c0.699,1.207,1.404,2.467,2.256,3.722c2.102,3.42,5.753,6.712,10.147,11.042    c0.72,0.665,0.09,0.963,1.59,2.218c1.676,1.555,3.392,2.811,5.004,4.116C45.762,164.709,47.356,165.974,49.106,167.183z" fill="#ffffff" style="fill: rgb(255, 255, 255);"></path>  <path d="M131.327,180.632l2.14-0.828c1.441-0.523,2.834-1.169,4.24-1.796c5.465-2.486,10.74-5.554,15.754-9.223    c8.046-5.915,15.006-13.019,20.571-21.02c5.631-7.96,9.859-16.8,12.735-26.093c5.643-18.619,5.519-39.248-1.272-59.004    c-7.467-21.375-22.25-39.15-40.75-50.155c-4.605-2.755-9.419-5.063-14.361-6.919c-1.246-0.435-2.473-0.92-3.73-1.308    c-1.26-0.38-2.517-0.76-3.772-1.139c-1.273-0.315-2.545-0.629-3.814-0.942c-1.271-0.307-2.562-0.513-3.84-0.772    c-5.135-0.917-10.322-1.385-15.501-1.429c-5.182-0.034-10.342,0.432-15.446,1.252l-1.912,0.329    c-0.639,0.102-1.275,0.219-1.904,0.373l-3.79,0.855l-3.749,1.04c-1.251,0.347-2.471,0.8-3.71,1.195    c-4.918,1.694-9.721,3.792-14.362,6.284c-9.278,4.997-17.84,11.635-25.396,19.672c-2.922,3.069-6.091,7.155-9.102,11.873    c-3.004,4.722-5.771,10.128-7.95,15.747c-1.922,4.924-3.361,9.987-4.377,14.821c-0.85-0.718-1.763-1.373-2.753-1.928    c-2.628,4.875-2.57,8.905-1.008,14.179c0.502,1.695,1.066,3.196,1.76,4.544c0.035,1.278,0.069,2.448,0.136,3.5    c0.002,0.025,0.005,0.046,0.007,0.071c-1.807-1.062-3.786-1.846-5.901-2.231c-0.9,5.463,0.473,9.258,3.663,13.735    c2.279,3.195,4.546,5.382,7.632,6.721c0.05,0.447,0.111,0.894,0.179,1.342c-3.03-1.218-6.355-1.704-9.675-1.197    c0.931,5.459,3.461,8.601,7.936,11.794c4.477,3.193,8.268,4.563,13.732,3.666c-1.151-6.346-5.73-11.55-11.483-14.051    c-0.086-0.45-0.164-0.9-0.247-1.349c1.118,0.442,2.343,0.779,3.716,1.014c0.891-5.811-1.224-11.65-5.104-15.85    c0.072-0.544,0.142-1.083,0.21-1.618c0.614,0.436,1.275,0.854,2.004,1.253c2.817-5.363,2.629-11.797,0.115-17.129    c0.68-3.541,1.462-7.481,2.929-11.939c1.407-4.265,3.353-9.044,6.311-14.233c-0.334,0.587-0.633,1.102-0.892,1.54    c-0.366,0.633-0.62,1.132-0.833,1.479c-0.416,0.697-0.575,0.828-0.52,0.499c0.062-0.326,0.313-1.124,0.78-2.251    c0.508-1.106,1.148-2.584,2.026-4.239c1.729-3.325,4.328-7.402,7.395-11.229c0.79-0.938,1.535-1.919,2.376-2.808    c0.833-0.895,1.656-1.784,2.482-2.634c0.861-0.819,1.71-1.614,2.537-2.371c0.819-0.764,1.695-1.415,2.491-2.061    c4.72-3.62,9.981-7.44,15.965-10.789c1.503-0.821,3.002-1.698,4.589-2.451c0.788-0.386,1.564-0.809,2.371-1.178    c0.809-0.364,1.623-0.729,2.441-1.097c0.81-0.386,1.646-0.719,2.49-1.047c0.84-0.335,1.685-0.672,2.532-1.009    c0.863-0.297,1.729-0.595,2.597-0.895l1.305-0.454l1.329-0.391c0.888-0.261,1.778-0.523,2.67-0.785    c0.9-0.235,1.81-0.438,2.718-0.662c1.808-0.485,3.668-0.758,5.514-1.127C90.272,7.2,94.04,6.753,97.81,6.686    c3.77-0.163,7.528,0.083,11.221,0.454c1.836,0.279,3.677,0.456,5.466,0.861c0.897,0.182,1.791,0.364,2.681,0.545    c0.878,0.23,1.752,0.459,2.623,0.687c0.435,0.113,0.871,0.227,1.309,0.342c0.433,0.134,0.868,0.268,1.305,0.403    c0.873,0.266,1.755,0.535,2.645,0.806c0.878,0.308,1.764,0.62,2.66,0.934c0.448,0.156,0.898,0.314,1.351,0.472    c0.445,0.18,0.893,0.36,1.342,0.542c3.63,1.378,7.285,3.177,11.017,5.305c19.107,11.478,33.218,29.389,39.781,50.132    c3.268,10.365,4.693,21.441,4.011,32.602c-0.686,11.153-3.564,22.415-8.801,32.918c-5.51,11.128-12.027,20.167-19.705,27.471    c-1.4,1.334-2.956,2.539-4.491,3.756c-0.769,0.606-1.589,1.144-2.377,1.711c-0.792,0.561-1.578,1.121-2.397,1.611    c-0.807,0.506-1.605,1.005-2.389,1.497c-0.794,0.473-1.597,0.901-2.367,1.341c-1.528,0.904-3.06,1.619-4.444,2.351    c-4.403,2.202-8.655,3.927-12.79,5.354c-4.158,1.357-8.192,2.415-12.205,3.209c8.975-1.655,15.399-3.714,24.499-8.151    c2.984-1.578,2.055-0.842-0.136,0.574c-1.127,0.644-2.564,1.475-3.999,2.22c-1.457,0.693-2.876,1.387-3.924,1.82    c-0.892,0.385-2.123,0.643-3.346,0.898c-1.225,0.25-2.47,0.402-3.374,0.753c-0.503,0.147-1.002,0.292-1.496,0.436    c-0.5,0.128-0.996,0.254-1.491,0.381c-0.988,0.266-1.971,0.531-2.964,0.797c-2.006,0.443-4.042,0.994-6.286,1.318    c-1.914,0.381-1.758-0.299-2.711-0.15c-6.086,0.727-10.902,1.426-14.852,0.924c-0.747-0.089-1.475-0.175-2.189-0.26    c-0.712-0.094-1.403-0.235-2.086-0.347c-1.364-0.237-2.683-0.449-3.965-0.772c-0.816-0.168-1.63-0.335-2.456-0.505    c-0.824-0.174-1.649-0.397-2.51-0.582c-1.076-0.197-2.198-0.393-3.297-0.68c-7.955-1.794-16.87-5.311-24.414-9.955    c0.02,0.035,0.046,0.081,0.065,0.116c4.075,2.556,8.178,4.843,12.584,7.158c-0.295-0.185-0.404-0.298-0.333-0.301    c0.13-0.015,0.817,0.249,2.06,0.712c0.587,0.362,1.178,0.725,1.758,1.083c-4.404-1.447-8.672-3.39-12.233-5.99    c0,0-1.788-0.876-2.672-1.309c-1.18-0.885-1.006-1.029-1.164-1.352c-0.844-0.552-1.734-1.06-2.572-1.65    c0.378,0.4,1.031,0.916,1.77,1.51c0.745,0.584,1.569,1.258,2.377,1.835c1.64,1.126,3.055,2.098,3.055,2.098    c11.552,6.4,23.744,9.945,35.83,11.02c0.943-0.071,1.599-0.125,2.845-0.005c0.939,0.149,1.892,0.256,2.838,0.336    c0.887,0.052,1.774,0.033,2.659,0.02c0.885-0.011,1.768-0.022,2.647-0.033c0.615-0.025,1.234-0.113,1.864-0.17    c0.008-0.001,0.037-0.005,0.051-0.007c0.988-0.149,0.684-0.233,0.066-0.291c-0.533-0.022-1.015-0.049-1.463-0.091    c0.427,0.027,1.024,0.047,1.463,0.091c0.837,0.028,1.77,0.03,2.858-0.008c0.667-0.099,1.355-0.192,2.047-0.284    c-0.519,0.077-1.045,0.158-1.574,0.24c-0.157,0.015-0.321,0.032-0.473,0.044c-0.805,0.083-1.583,0.163-2.358,0.243    c-0.01,0.001-0.019,0.002-0.028,0.003l0.006,0c-0.198,0.02-0.397,0.041-0.596,0.061c-0.281,0.041-0.563,0.081-0.857,0.124    c2.021-0.137,4.042-0.217,6.043-0.493c1.001-0.127,2.009-0.205,3.004-0.371l2.986-0.5c0.915-0.161,1.774-0.385,2.473-0.57    c2.847-0.687,5.596-1.626,7.434-1.8c0.678-0.223,1.37-0.451,2.061-0.679c-0.134,0.024-0.28,0.051-0.415,0.076    c0.313-0.079,0.577-0.146,0.792-0.201C129.88,181.122,130.616,180.913,131.327,180.632z M151.589,169.435    c1.404-0.917,2.82-1.843,4.091-2.674c-1.352,1.317-2.77,2.32-4.116,3.199c-0.667,0.447-1.331,0.844-2.001,1.181    c-0.662,0.348-1.305,0.669-1.927,0.973C148.807,171.262,150.223,170.401,151.589,169.435z" fill="#ffffff" style="fill: rgb(255, 255, 255);"></path>  <path d="M64.91,177.982c0.224,0.141,0.553,0.322,1.01,0.535C65.577,178.338,65.249,178.16,64.91,177.982z" fill="#ffffff" style="fill: rgb(255, 255, 255);"></path></g></g></svg>