<svg xmlns="http://www.w3.org/2000/svg" width="512" height="512" viewBox="0 0 512 512"><path fill="#D6E5E5" d="M470.5,176.5c-21.3-43.4-61.6-77.5-104.2-99C323.5,55.8,274.1,44.4,226.2,52C147.3,64.4,70.9,122.3,48.3,199.9c0,0.9-0.2,1.7-0.7,2.6c-0.4,1.4-0.8,2.9-1.1,4.3c-0.5,1-1,2-1.4,3.1c-0.1,0.9-0.3,1.9-0.4,2.7c-0.9,4.1-2,8.2-2.7,12.3c-1.4,7.7-1.1,15.7-3.8,23c-0.2,2.1-0.5,4.2-0.8,6.3c0,0.3,0,0.5,0,0.7c-0.5,4.4-0.9,8.8-1.3,13.2c-0.8,9.2-1.2,18.4-1.1,27.6c0.3,18.1,2.4,36.2,6.9,53.7c8.7,33.3,25.5,64.8,52,87.3c18.2,15.5,39.5,25.7,62.4,32.3c25,7.3,51,11.4,77.1,11.5c51.5,0.1,103.2-13.9,145.6-43.7C457.4,381.6,516.5,270,470.5,176.5z M326.8,208.7c-5,1.7-10.3,1.5-15.5,1.3c-3.3-0.1-9-1.2-11.8,1.1c-5.4,4.6-11.5-4.6-6.2-9.1c6.7-5.6,16.3-2.3,24.7-2.7c-0.3-0.8-0.6-1.7-0.9-2.5c-1.6-0.1-3.3-0.8-4.3-2.1c-12.8-16.6-30.6-28.9-51.6-32c-18.6-2.8-39,0.2-55.7,9.1c-17,9.1-32.4,21.7-44.6,36.5c-10.9,13.2-21.4,29.7-20.9,47.4c0.2,7.1-10.8,7.9-11,0.8c-0.5-20.7,10.7-40.1,23.6-55.5c13.8-16.4,30.9-30.7,50.2-40.1c19.1-9.4,42.4-12.7,63.3-8.5c14.8,3,28,9.6,39.2,18.9c-0.5-2-0.8-4.1-0.8-6.2c-0.2-6.1,8.6-8.3,10.7-2.2c4.5,13.2,11.8,25.4,15,39C330.9,204.6,329.9,207.7,326.8,208.7z"/><path d="M470.2,155.6C445,115.2,404.3,83.9,361.6,64c-43.3-20.2-92.9-29.5-140.3-21.3c-81.8,14.2-160,74.7-182.9,155.6c-3.3,5.5-3.8,13.1-5.2,19.2c-1,4.3-1.7,8.7-2.3,13.1c-0.1,0.4-0.1,0.9-0.2,1.3c-0.1,0.3-0.2,0.5-0.2,0.8c-0.8,4.2-1.5,8.4-2.1,12.6c0,0.1-0.1,0.1-0.1,0.2c-0.5,1.2-0.6,2.3-0.4,3.2c-1,8.1-1.7,16.2-2.3,24.3c-0.8,11.4-0.9,22.9-0.3,34.3C26.6,329.8,31,352,38.7,373c15.3,41.8,45.5,76.5,86.1,95.3c23.1,10.6,48.8,16.7,73.9,20c25.5,3.3,51.5,3.1,77-0.6c50.9-7.4,98.5-29.7,136.1-64.8c36.4-33.9,65-77.6,78.1-125.8C503,249,496.7,198,470.2,155.6z M378.9,436.9c-42.4,29.8-94.1,43.8-145.6,43.7c-26.1-0.1-52.1-4.2-77.1-11.5c-22.9-6.7-44.2-16.8-62.4-32.3c-26.5-22.5-43.3-54-52-87.3c-4.6-17.5-6.6-35.6-6.9-53.7c-0.2-9.2,0.2-18.4,1.1-27.6c0.4-4.4,0.8-8.8,1.3-13.2c0-0.2,0-0.5,0-0.7c0.3-2.1,0.6-4.2,0.8-6.3c2.7-7.3,2.4-15.4,3.8-23c0.8-4.1,1.8-8.2,2.7-12.3c0.2-0.8,0.3-1.7,0.4-2.7c0.4-1,0.9-2.1,1.4-3.1c0.4-1.4,0.7-2.9,1.1-4.3c0.5-0.9,0.8-1.8,0.7-2.6c22.6-77.6,99-135.5,177.9-147.9c47.9-7.6,97.3,3.8,140.1,25.5c42.6,21.5,82.8,55.7,104.2,99C516.5,270,457.4,381.6,378.9,436.9z"/><path d="M330.2 201.7c-3.2-13.6-10.5-25.8-15-39-2.1-6.1-10.9-3.9-10.7 2.2.1 2.2.4 4.2.8 6.2-11.3-9.3-24.4-15.9-39.2-18.9-20.9-4.2-44.2-.8-63.3 8.5-19.3 9.5-36.4 23.8-50.2 40.1-13 15.4-24.2 34.8-23.6 55.5.2 7.1 11.2 6.2 11-.8-.5-17.7 10.1-34.3 20.9-47.4 12.3-14.8 27.6-27.5 44.6-36.5 16.7-8.9 37.1-11.9 55.7-9.1 21 3.2 38.8 15.4 51.6 32 1 1.3 2.6 2 4.3 2.1.3.8.6 1.7.9 2.5-8.3.4-18-2.9-24.7 2.7-5.4 4.5.7 13.7 6.2 9.1 2.7-2.3 8.5-1.2 11.8-1.1 5.2.2 10.5.5 15.5-1.3C329.9 207.7 330.9 204.6 330.2 201.7zM362 273.6c0-3.2-3.1-5.1-5.9-5.1-3.6 0-7.1.2-10.2 2.4-5.4 3.9-.3 12.2 5.1 9.7.1 20 .1 39.8-12.6 56.6-10.9 14.4-27.3 23.1-44.4 28.2-17.7 5.2-37.7 6.9-56 3.9-17-2.8-31.8-11.4-46.2-20.5 5 .5 10.1 1.1 15.1 1.2 7.1.1 6.2-10.9-.8-11-11-.2-21.9-2.8-33-1.5-3.3.4-5.3 3.1-5 6.2-.1.4-.1.8-.1 1.2v6c0 2.7 1.6 4.2 3.5 4.7 1.6 8.5 3.7 16.8 5.8 25.2 1.6 6.3 10.8 3.7 10.7-2.2-.2-7.7-2.2-14.9-4.6-22.1 16.9 10.6 33.9 20.7 54.1 24 20.1 3.3 42 .8 61.4-5 18.9-5.6 36.6-16.2 48.6-32C363.2 322.8 362 298.2 362 273.6z"/></svg>